<?xml version="1.0" encoding="UTF-8"?>
<svg version="1.1" viewBox="0 0 125.04 40.228" xmlns="http://www.w3.org/2000/svg" xmlns:cc="http://creativecommons.org/ns#" xmlns:dc="http://purl.org/dc/elements/1.1/" xmlns:rdf="http://www.w3.org/1999/02/22-rdf-syntax-ns#">
<metadata>
<rdf:RDF>
<cc:Work rdf:about="">
<dc:format>image/svg+xml</dc:format>
<dc:type rdf:resource="http://purl.org/dc/dcmitype/StillImage"/>
<dc:title/>
</cc:Work>
</rdf:RDF>
</metadata>
<path d="m101.84 12.281h-1.9583v26.763c0 0.36097-0.29177 0.65275-0.65209 0.65275h-19.583c-0.36034 0-0.65276-0.29178-0.65276-0.65275v-26.763h-1.9582c-0.36034 0-0.65276-0.29178-0.65276-0.65275v-1.9582c0-0.21541 0.10642-0.41711 0.28395-0.53852l12.403-8.4857c0.22194-0.15144 0.51502-0.15144 0.73697 0l12.402 8.4857c0.17755 0.12141 0.28395 0.32311 0.28395 0.53852v1.9582c0 0.36097-0.29179 0.65275-0.65276 0.65275zm-21.541 26.11h18.277v-5.222h-3.2638c-0.36032 0-0.65276-0.29178-0.65276-0.65275v-15.666c0-0.36097 0.29244-0.65275 0.65276-0.65275h3.2638v-3.9165h-18.277v3.9165h11.097c0.36031 0 0.65274 0.29178 0.65274 0.65275v15.666c0 0.36097-0.29243 0.65275-0.65274 0.65275h-11.097zm18.277-6.5275v-14.36h-2.611v14.36zm-7.833 0v-14.36h-10.444v14.36zm10.444-21.849-11.75-8.0386-11.749 8.0386v0.9615h23.499z" stroke="#000" stroke-width="1.0645"/>
<g aria-label="LITF   ẞ">
<path d="m5.9375 38.119h5.1172q0.83984 0 1.4062-0.09766 0.56641-0.09766 0.95703-0.29297 0.41016-0.21484 0.72266-0.56641 0.33203-0.37109 0.625-0.95703 0.29297-0.58594 0.54688-1.4648 0.27344-0.89844 0.66406-2.6758h1.9727l-0.39062 7.8516h-17.559v-0.95703q1.2109-0.3125 1.6211-0.68359 0.41016-0.39062 0.52734-1.0938 0.13672-0.70312 0.13672-2.1484v-16.895q0-1.3477-0.097656-1.9531-0.097656-0.625-0.33203-0.95703-0.21484-0.35156-0.58594-0.54688-0.37109-0.21484-1.2695-0.46875v-0.95703h8.2227v0.95703q-0.85938 0.23438-1.2305 0.42969-0.35156 0.17578-0.58594 0.48828t-0.35156 0.95703q-0.11719 0.64453-0.11719 2.0508z"/>
<path d="m26.941 35.033q0 1.3086 0.07813 1.9141 0.09766 0.60547 0.29297 0.95703 0.21484 0.35156 0.60547 0.58594 0.41016 0.23438 1.3086 0.46875v0.95703h-8.2422v-0.95703q1.2109-0.3125 1.6211-0.68359 0.41016-0.39062 0.52734-1.0938 0.13672-0.70312 0.13672-2.1484v-16.895q0-1.3477-0.09766-1.9531-0.09766-0.625-0.33203-0.95703-0.21484-0.35156-0.58594-0.54688-0.37109-0.21484-1.2695-0.46875v-0.95703h8.2422v0.95703q-0.85938 0.21484-1.25 0.42969-0.37109 0.21484-0.60547 0.54688-0.21484 0.3125-0.33203 0.95703-0.09766 0.64453-0.09766 1.9922z"/>
<path d="m32.379 13.256h21.133v6.7969h-1.9141q-0.42969-1.6797-0.85938-2.6562-0.41016-0.97656-0.87891-1.4844-0.46875-0.50781-1.0156-0.72266-0.52734-0.21484-1.6016-0.21484h-2.4805v20q0 1.1523 0.11719 1.8359 0.13672 0.68359 0.39062 1.0938 0.27344 0.39062 0.72266 0.625 0.44922 0.21484 1.4062 0.42969v0.95703h-8.9258v-0.95703q0.58594-0.13672 1.0352-0.29297 0.44922-0.15625 0.72266-0.37109 0.29297-0.23438 0.46875-0.58594 0.19531-0.35156 0.29297-0.95703 0.11719-0.60547 0.11719-1.7773v-20h-2.4609q-0.91797 0-1.5234 0.17578-0.58594 0.17578-1.0938 0.74219-0.50781 0.54688-0.9375 1.582-0.41016 1.0156-0.78125 2.5781h-1.9336z"/>
<path d="m74.516 13.256v5.8984h-1.9141q-0.42969-1.3281-0.83984-2.1484-0.39062-0.82031-0.83984-1.25-0.42969-0.42969-1.0156-0.60547-0.58594-0.17578-1.543-0.17578h-5.7227v10.625h4.0234q0.85938 0 1.3477-0.27344 0.48828-0.29297 0.80078-0.95703 0.33203-0.66406 0.625-2.0508h1.8359v8.2422h-1.8359q-0.29297-1.3281-0.625-1.9922-0.33203-0.68359-0.80078-0.95703-0.44922-0.29297-1.3477-0.29297h-4.0234v7.6562q0 1.1719 0.13672 1.875 0.13672 0.70312 0.44922 1.1133 0.3125 0.41016 0.83984 0.625 0.52734 0.19531 1.3086 0.37109v0.95703h-8.6719v-0.95703q1.2109-0.3125 1.6211-0.68359 0.41016-0.39062 0.52734-1.0938 0.13672-0.70312 0.13672-2.1484v-16.895q0-1.3477-0.09766-1.9531-0.09766-0.625-0.33203-0.95703-0.21484-0.35156-0.58594-0.54688-0.37109-0.21484-1.2695-0.46875v-0.95703z"/>
<path d="m112.03 35.111q0.54688 1.7773 1.543 2.6172 0.9961 0.82031 2.7344 0.82031 1.2695 0 2.1875-0.41016t1.5039-1.1719q0.58594-0.76172 0.85938-1.8359 0.29297-1.0742 0.29297-2.3828 0-1.4258-0.3125-2.4805-0.29297-1.0547-0.82031-1.7969-0.52735-0.74219-1.2305-1.1914-0.6836-0.46875-1.4844-0.72266-0.80078-0.27344-1.6406-0.37109-0.83985-0.097656-1.6602-0.097656-0.0586 0-0.27344 0-0.19531 0-0.37109 0.01953v-0.95703l5.4492-10.156q-0.89844-0.13672-1.9141-0.21484-0.9961-0.09766-1.9727-0.09766-1.9141 0-3.2422 0.41016-1.3086 0.39062-2.1289 1.3477-0.82032 0.95703-1.1914 2.5195-0.35156 1.5625-0.35156 3.8672v17.09h-5.9375v-0.95703q0.58593-0.13672 0.95703-0.29297 0.37109-0.15625 0.60547-0.35156 0.23437-0.19531 0.35156-0.42969 0.13672-0.25391 0.21484-0.58594 0.0781-0.33203 0.11719-0.87891 0.0391-0.56641 0.0391-1.3867v-12.559q0-2.5391 0.66407-4.3359 0.68359-1.8164 2.0312-2.9688 1.3476-1.1523 3.3789-1.6797 2.0312-0.54688 4.7461-0.54688 2.0117 0 4.0039 0.27344 2.0117 0.27344 3.75 0.80078v0.78125l-5.2734 9.9023q1.5234 0.19531 2.8711 0.64453 1.3476 0.44922 2.3438 1.2891 0.99609 0.83984 1.582 2.1484t0.58594 3.2031q0 1.9922-0.66407 3.5352-0.64453 1.543-1.7969 2.5977-1.1523 1.0352-2.7539 1.582-1.6016 0.52734-3.4766 0.52734-1.3867 0-3.0078-0.27344-1.6016-0.27344-3.418-0.76172v-4.082z"/>
</g>
</svg>
